# 3ds Max Wavefront OBJ Exporter v0.97b - (c)2007 guruware
# File Created: 30.10.2019 15:18:32

#
# object Plane014
#

v  8.8632 0.5713 7.6457
v  10.9113 0.5713 1.2629
v  10.9118 0.5713 3.0998
v  9.7208 0.5713 4.2268
v  16.9353 0.3024 2.7959
v  12.1919 0.5713 5.4157
v  12.6496 0.3024 5.8170
v  9.1921 0.3024 8.1722
v  9.7208 0.5713 -7.6920
v  10.9113 0.5713 -4.7281
v  10.9118 0.5713 -6.5650
v  16.3179 0.5713 -6.0204
v  16.9353 0.3024 -6.2611
v  16.3179 0.5713 2.5552
v  12.1919 0.5713 -8.8809
v  12.6496 0.3024 -9.2822
v  9.1921 0.3024 -11.6374
v  8.8632 0.5713 -11.1109
v  21.9364 -0.2132 -8.9215
v  18.7146 -0.2132 -11.2804
v  16.3224 -0.2132 -15.0208
v  18.5117 0.3024 -7.7737
v  15.7999 0.3024 -9.7592
v  13.7863 0.3024 -12.9076
v  21.9364 -0.2132 5.5606
v  18.7146 -0.2132 7.9195
v  16.3224 -0.2132 11.7254
v  18.5117 0.3024 4.4162
v  15.7999 0.3024 6.4017
v  13.7863 0.3024 9.6053
v  0.3623 0.5713 4.2268
v  0.3623 0.3024 8.1722
v  0.3623 0.3024 9.6053
v  0.3623 0.3024 -11.6374
v  0.3623 0.3024 -12.9076
v  -8.1386 0.5713 7.6457
v  0.3623 0.5713 7.6457
v  -8.4676 0.3024 8.1722
v  -11.4673 0.5713 5.4157
v  -11.9251 0.3024 5.8170
v  -16.2107 0.3024 2.7959
v  -15.5933 0.5713 2.5552
v  -10.1868 0.5713 1.2629
v  -10.1872 0.5713 3.0998
v  -8.9962 0.5713 4.2268
v  -8.1386 0.5713 -11.1109
v  -8.4676 0.3024 -11.6374
v  0.3623 0.5713 -11.1109
v  -15.5933 0.5713 -6.0204
v  -16.2107 0.3024 -6.2611
v  -11.4673 0.5713 -8.8809
v  -11.9251 0.3024 -9.2822
v  -10.1868 0.5713 -4.7281
v  -10.1872 0.5713 -6.5650
v  -8.9962 0.5713 -7.6920
v  -17.7872 0.3024 -7.7737
v  -15.0753 0.3024 -9.7592
v  -13.0618 0.3024 -12.9076
v  -21.2118 -0.2132 -8.9215
v  -17.9900 -0.2132 -11.2804
v  -15.5978 -0.2132 -15.0208
v  -15.0753 0.3024 6.4017
v  -17.7872 0.3024 4.4162
v  -13.0618 0.3024 9.6053
v  -17.9900 -0.2132 7.9195
v  -21.2118 -0.2132 5.5606
v  -15.5978 -0.2132 11.7254
v  0.3623 0.5713 -7.6920
v  0.3623 -0.2132 11.7254
v  0.3623 -0.2132 -15.0208
# 70 vertices

vn 0.0584 0.9682 0.2431
vn 0.0000 0.9723 0.2339
vn 0.0000 0.9723 0.2339
vn 0.0556 0.9856 0.1598
vn 0.1200 0.9769 0.1765
vn 0.1203 0.9775 0.1732
vn 0.1209 0.9909 0.0595
vn 0.2149 0.9684 0.1269
vn 0.0584 0.9682 0.2431
vn 0.0556 0.9856 0.1598
vn 0.1203 0.9775 0.1732
vn 0.1200 0.9769 0.1765
vn 0.0000 1.0000 -0.0000
vn 0.0000 1.0000 -0.0000
vn 0.1200 0.9769 0.1765
vn 0.2149 0.9684 0.1269
vn 0.0000 1.0000 0.0000
vn 0.0584 0.9682 0.2431
vn 0.1200 0.9769 0.1765
vn 0.0000 1.0000 -0.0000
vn 0.0584 0.9682 -0.2431
vn 0.0556 0.9856 -0.1598
vn 0.0000 0.9723 -0.2339
vn 0.0000 0.9723 -0.2339
vn 0.2149 0.9684 -0.1269
vn 0.2149 0.9684 0.1269
vn 0.1209 0.9909 0.0595
vn 0.1209 0.9909 -0.0595
vn 0.1200 0.9769 -0.1765
vn 0.2149 0.9684 -0.1269
vn 0.1209 0.9909 -0.0595
vn 0.1203 0.9775 -0.1732
vn 0.0584 0.9682 -0.2431
vn 0.1200 0.9769 -0.1765
vn 0.1203 0.9775 -0.1732
vn 0.0556 0.9856 -0.1598
vn 0.2149 0.9684 0.1269
vn 0.2149 0.9684 -0.1269
vn -0.0000 1.0000 -0.0000
vn 0.0000 1.0000 -0.0000
vn -0.0000 1.0000 -0.0000
vn 0.2149 0.9684 -0.1269
vn 0.1200 0.9769 -0.1765
vn -0.0000 1.0000 0.0000
vn 0.1200 0.9769 -0.1765
vn 0.0584 0.9682 -0.2431
vn -0.0000 1.0000 0.0000
vn -0.0000 1.0000 0.0000
vn 0.1203 0.9775 -0.1732
vn 0.1209 0.9909 -0.0595
vn 0.0806 0.9956 -0.0485
vn 0.0528 0.9975 -0.0470
vn 0.0556 0.9856 -0.1598
vn 0.1203 0.9775 -0.1732
vn 0.0528 0.9975 -0.0470
vn 0.0357 0.9927 -0.1155
vn 0.0806 0.9956 -0.0485
vn 0.1287 0.9898 -0.0606
vn 0.1142 0.9867 -0.1157
vn 0.0528 0.9975 -0.0470
vn 0.0528 0.9975 -0.0470
vn 0.1142 0.9867 -0.1157
vn 0.0883 0.9869 -0.1348
vn 0.0357 0.9927 -0.1155
vn 0.1209 0.9909 0.0595
vn 0.1203 0.9775 0.1732
vn 0.0529 0.9975 0.0466
vn 0.0806 0.9956 0.0485
vn 0.1203 0.9775 0.1732
vn 0.0556 0.9856 0.1598
vn 0.0361 0.9927 0.1150
vn 0.0529 0.9975 0.0466
vn 0.0529 0.9975 0.0466
vn 0.1145 0.9867 0.1152
vn 0.1288 0.9898 0.0606
vn 0.0806 0.9956 0.0485
vn 0.0361 0.9927 0.1150
vn 0.0885 0.9870 0.1342
vn 0.1145 0.9867 0.1152
vn 0.0529 0.9975 0.0466
vn 0.0806 0.9956 0.0485
vn 0.1288 0.9898 0.0606
vn 0.1287 0.9898 -0.0606
vn 0.0806 0.9956 -0.0485
vn 0.1209 0.9909 0.0595
vn 0.0806 0.9956 0.0485
vn 0.0806 0.9956 -0.0485
vn 0.1209 0.9909 -0.0595
vn 0.0000 0.9723 0.2339
vn 0.0584 0.9682 0.2431
vn 0.0000 1.0000 0.0000
vn 0.0000 1.0000 0.0000
vn 0.0000 1.0000 0.0000
vn -0.0000 1.0000 0.0000
vn 0.0584 0.9682 -0.2431
vn 0.0000 0.9723 -0.2339
vn 0.0361 0.9927 0.1150
vn 0.0556 0.9856 0.1598
vn 0.0000 0.9723 0.2339
vn 0.0000 0.9929 0.1190
vn 0.0885 0.9870 0.1342
vn 0.0361 0.9927 0.1150
vn 0.0000 0.9929 0.1190
vn 0.0000 0.9717 0.2363
vn 0.0357 0.9927 -0.1155
vn 0.0883 0.9869 -0.1348
vn 0.0000 0.9715 -0.2370
vn 0.0000 0.9928 -0.1194
vn 0.0556 0.9856 -0.1598
vn 0.0357 0.9927 -0.1155
vn 0.0000 0.9928 -0.1194
vn 0.0000 0.9723 -0.2339
vn -0.0584 0.9682 0.2431
vn -0.0556 0.9856 0.1598
vn 0.0000 0.9723 0.2339
vn 0.0000 0.9723 0.2339
vn -0.1200 0.9769 0.1765
vn -0.2149 0.9684 0.1269
vn -0.1209 0.9909 0.0595
vn -0.1203 0.9775 0.1732
vn -0.0584 0.9682 0.2431
vn -0.1200 0.9769 0.1765
vn -0.1203 0.9775 0.1732
vn -0.0556 0.9856 0.1598
vn -0.0000 1.0000 -0.0000
vn -0.2149 0.9684 0.1269
vn -0.1200 0.9769 0.1765
vn 0.0000 1.0000 -0.0000
vn -0.0000 1.0000 0.0000
vn 0.0000 1.0000 -0.0000
vn -0.1200 0.9769 0.1765
vn -0.0584 0.9682 0.2431
vn -0.0584 0.9682 -0.2431
vn 0.0000 0.9723 -0.2339
vn 0.0000 0.9723 -0.2339
vn -0.0556 0.9856 -0.1598
vn -0.2149 0.9684 -0.1269
vn -0.1209 0.9909 -0.0595
vn -0.1209 0.9909 0.0595
vn -0.2149 0.9684 0.1269
vn -0.1200 0.9769 -0.1765
vn -0.1203 0.9775 -0.1732
vn -0.1209 0.9909 -0.0595
vn -0.2149 0.9684 -0.1269
vn -0.0584 0.9682 -0.2431
vn -0.0556 0.9856 -0.1598
vn -0.1203 0.9775 -0.1732
vn -0.1200 0.9769 -0.1765
vn -0.2149 0.9684 0.1269
vn -0.0000 1.0000 -0.0000
vn 0.0000 1.0000 -0.0000
vn -0.2149 0.9684 -0.1269
vn 0.0000 1.0000 -0.0000
vn 0.0000 1.0000 0.0000
vn -0.1200 0.9769 -0.1765
vn -0.2149 0.9684 -0.1269
vn -0.1200 0.9769 -0.1765
vn 0.0000 1.0000 0.0000
vn 0.0000 1.0000 0.0000
vn -0.0584 0.9682 -0.2431
vn -0.1203 0.9775 -0.1732
vn -0.0528 0.9975 -0.0470
vn -0.0806 0.9956 -0.0485
vn -0.1209 0.9909 -0.0595
vn -0.0556 0.9856 -0.1598
vn -0.0357 0.9927 -0.1155
vn -0.0528 0.9975 -0.0470
vn -0.1203 0.9775 -0.1732
vn -0.0806 0.9956 -0.0485
vn -0.0528 0.9975 -0.0470
vn -0.1142 0.9867 -0.1157
vn -0.1287 0.9898 -0.0606
vn -0.0528 0.9975 -0.0470
vn -0.0357 0.9927 -0.1155
vn -0.0883 0.9869 -0.1348
vn -0.1142 0.9867 -0.1157
vn -0.1209 0.9909 0.0595
vn -0.0806 0.9956 0.0485
vn -0.0529 0.9975 0.0466
vn -0.1203 0.9775 0.1732
vn -0.1203 0.9775 0.1732
vn -0.0529 0.9975 0.0466
vn -0.0361 0.9927 0.1150
vn -0.0556 0.9856 0.1598
vn -0.0529 0.9975 0.0466
vn -0.0806 0.9956 0.0485
vn -0.1288 0.9898 0.0606
vn -0.1145 0.9867 0.1152
vn -0.0361 0.9927 0.1150
vn -0.0529 0.9975 0.0466
vn -0.1145 0.9867 0.1152
vn -0.0885 0.9870 0.1342
vn -0.0806 0.9956 0.0485
vn -0.0806 0.9956 -0.0485
vn -0.1287 0.9898 -0.0606
vn -0.1288 0.9898 0.0606
vn -0.1209 0.9909 0.0595
vn -0.1209 0.9909 -0.0595
vn -0.0806 0.9956 -0.0485
vn -0.0806 0.9956 0.0485
vn 0.0000 0.9723 0.2339
vn 0.0000 1.0000 0.0000
vn -0.0000 1.0000 0.0000
vn -0.0584 0.9682 0.2431
vn 0.0000 1.0000 0.0000
vn 0.0000 0.9723 -0.2339
vn -0.0584 0.9682 -0.2431
vn 0.0000 1.0000 0.0000
vn -0.0361 0.9927 0.1150
vn 0.0000 0.9929 0.1190
vn 0.0000 0.9723 0.2339
vn -0.0556 0.9856 0.1598
vn -0.0885 0.9870 0.1342
vn 0.0000 0.9717 0.2363
vn 0.0000 0.9929 0.1190
vn -0.0361 0.9927 0.1150
vn -0.0357 0.9927 -0.1155
vn 0.0000 0.9928 -0.1194
vn 0.0000 0.9715 -0.2370
vn -0.0883 0.9869 -0.1348
vn -0.0556 0.9856 -0.1598
vn 0.0000 0.9723 -0.2339
vn 0.0000 0.9928 -0.1194
vn -0.0357 0.9927 -0.1155
# 224 vertex normals

vt 0.3958 0.1525 0.0000
vt 0.0029 0.1525 0.0000
vt 0.0029 0.1328 0.0000
vt 0.4110 0.1328 0.0000
vt 0.5496 0.2359 0.0000
vt 0.5708 0.2209 0.0000
vt 0.7689 0.3339 0.0000
vt 0.7403 0.3429 0.0000
vt 0.4904 0.3912 0.0000
vt 0.4905 0.3225 0.0000
vt 0.4354 0.2804 0.0000
vt 0.3958 0.8538 0.0000
vt 0.4110 0.8735 0.0000
vt 0.0029 0.8735 0.0000
vt 0.0029 0.8538 0.0000
vt 0.7403 0.6635 0.0000
vt 0.7689 0.6725 0.0000
vt 0.5496 0.7704 0.0000
vt 0.5708 0.7854 0.0000
vt 0.4904 0.6152 0.0000
vt 0.4905 0.6839 0.0000
vt 0.4354 0.7260 0.0000
vt 0.8417 0.7290 0.0000
vt 0.7164 0.8033 0.0000
vt 0.6233 0.9210 0.0000
vt 1.0000 0.7720 0.0000
vt 0.8511 0.8602 0.0000
vt 0.7405 1.0000 0.0000
vt 0.7164 0.1990 0.0000
vt 0.8417 0.2733 0.0000
vt 0.6233 0.0793 0.0000
vt 0.8511 0.1423 0.0000
vt 1.0000 0.2305 0.0000
vt 0.7405 0.0000 0.0000
vt 0.0029 0.2804 0.0000
vt 0.0029 0.7260 0.0000
vt 0.0029 0.0793 0.0000
vt 0.0029 1.0000 0.0000
vt 0.0029 0.9210 0.0000
vt 0.0029 0.0000 0.0000
vt 0.3958 0.1525 0.0000
vt 0.0029 0.1525 0.0000
vt 0.0029 0.1328 0.0000
vt 0.4110 0.1328 0.0000
vt 0.5496 0.2359 0.0000
vt 0.5708 0.2209 0.0000
vt 0.7689 0.3339 0.0000
vt 0.7403 0.3429 0.0000
vt 0.4904 0.3912 0.0000
vt 0.4905 0.3225 0.0000
vt 0.4354 0.2804 0.0000
vt 0.3958 0.8538 0.0000
vt 0.4110 0.8735 0.0000
vt 0.0029 0.8735 0.0000
vt 0.0029 0.8538 0.0000
vt 0.7403 0.6635 0.0000
vt 0.7689 0.6725 0.0000
vt 0.5496 0.7704 0.0000
vt 0.5708 0.7854 0.0000
vt 0.4904 0.6152 0.0000
vt 0.4905 0.6839 0.0000
vt 0.4354 0.7260 0.0000
vt 0.8417 0.7290 0.0000
vt 0.7164 0.8033 0.0000
vt 0.6233 0.9210 0.0000
vt 1.0000 0.7720 0.0000
vt 0.8511 0.8602 0.0000
vt 0.7405 1.0000 0.0000
vt 0.7164 0.1990 0.0000
vt 0.8417 0.2733 0.0000
vt 0.6233 0.0793 0.0000
vt 0.8511 0.1423 0.0000
vt 1.0000 0.2305 0.0000
vt 0.7405 0.0000 0.0000
vt 0.0029 0.2804 0.0000
vt 0.0029 0.7260 0.0000
vt 0.0029 0.0793 0.0000
vt 0.0029 0.0000 0.0000
vt 0.0029 1.0000 0.0000
vt 0.0029 0.9210 0.0000
# 80 texture coords

o Plane014
g Plane014
s off
f 1/1/1 37/2/2 32/3/3 8/4/4 
f 6/5/5 7/6/6 5/7/7 14/8/8 
f 1/1/9 8/4/10 7/6/11 6/5/12 
f 2/9/13 3/10/14 6/5/15 14/8/16 
f 4/11/17 1/1/18 6/5/19 3/10/20 
f 18/12/21 17/13/22 34/14/23 48/15/24 
f 12/16/25 14/8/26 5/7/27 13/17/28 
f 15/18/29 12/16/30 13/17/31 16/19/32 
f 18/12/33 15/18/34 16/19/35 17/13/36 
f 14/8/37 12/16/38 10/20/39 2/9/40 
f 10/20/41 12/16/42 15/18/43 11/21/44 
f 15/18/45 18/12/46 9/22/47 11/21/48 
f 16/19/49 13/17/50 22/23/51 23/24/52 
f 17/13/53 16/19/54 23/24/55 24/25/56 
f 22/23/57 19/26/58 20/27/59 23/24/60 
f 23/24/61 20/27/62 21/28/63 24/25/64 
f 5/7/65 7/6/66 29/29/67 28/30/68 
f 7/6/69 8/4/70 30/31/71 29/29/72 
f 29/29/73 26/32/74 25/33/75 28/30/76 
f 30/31/77 27/34/78 26/32/79 29/29/80 
s 1
f 28/30/81 25/33/82 19/26/83 22/23/84 
f 5/7/85 28/30/86 22/23/87 13/17/88 
s off
f 37/2/89 1/1/90 4/11/91 31/35/92 
f 68/36/93 9/22/94 18/12/95 48/15/96 
f 30/31/97 8/4/98 32/3/99 33/37/100 
f 27/34/101 30/31/102 33/37/103 69/40/104 
f 24/25/105 21/28/106 70/38/107 35/39/108 
f 17/13/109 24/25/110 35/39/111 34/14/112 
f 36/41/113 38/44/114 32/43/115 37/42/116 
f 39/45/117 42/48/118 41/47/119 40/46/120 
f 36/41/121 39/45/122 40/46/123 38/44/124 
f 43/49/125 42/48/126 39/45/127 44/50/128 
f 45/51/129 44/50/130 39/45/131 36/41/132 
f 46/52/133 48/55/134 34/54/135 47/53/136 
f 49/56/137 50/57/138 41/47/139 42/48/140 
f 51/58/141 52/59/142 50/57/143 49/56/144 
f 46/52/145 47/53/146 52/59/147 51/58/148 
f 42/48/149 43/49/150 53/60/151 49/56/152 
f 53/60/153 54/61/154 51/58/155 49/56/156 
f 51/58/157 54/61/158 55/62/159 46/52/160 
f 52/59/161 57/64/162 56/63/163 50/57/164 
f 47/53/165 58/65/166 57/64/167 52/59/168 
f 56/63/169 57/64/170 60/67/171 59/66/172 
f 57/64/173 58/65/174 61/68/175 60/67/176 
f 41/47/177 63/70/178 62/69/179 40/46/180 
f 40/46/181 62/69/182 64/71/183 38/44/184 
f 62/69/185 63/70/186 66/73/187 65/72/188 
f 64/71/189 62/69/190 65/72/191 67/74/192 
s 1
f 63/70/193 56/63/194 59/66/195 66/73/196 
f 41/47/197 50/57/198 56/63/199 63/70/200 
s off
f 37/42/201 31/75/202 45/51/203 36/41/204 
f 68/76/205 48/55/206 46/52/207 55/62/208 
f 64/71/209 33/77/210 32/43/211 38/44/212 
f 67/74/213 69/78/214 33/77/215 64/71/216 
f 58/65/217 35/80/218 70/79/219 61/68/220 
f 47/53/221 34/54/222 35/80/223 58/65/224 
# 56 polygons

